<?xml version="1.0" encoding="UTF-8" standalone="no"?>
<!-- Created with Inkscape (http://www.inkscape.org/) -->

<svg
   width="512"
   height="512"
   viewBox="0 0 512 512"
   version="1.1"
   id="svg1"
   xmlns:inkscape="http://www.inkscape.org/namespaces/inkscape"
   xmlns:sodipodi="http://sodipodi.sourceforge.net/DTD/sodipodi-0.dtd"
   xmlns="http://www.w3.org/2000/svg"
   xmlns:svg="http://www.w3.org/2000/svg">
  <sodipodi:namedview
     id="namedview1"
     pagecolor="#505050"
     bordercolor="#eeeeee"
     borderopacity="1"
     inkscape:showpageshadow="0"
     inkscape:pageopacity="0"
     inkscape:pagecheckerboard="0"
     inkscape:deskcolor="#505050"
     inkscape:document-units="px" />
  <defs
     id="defs1" />
  <g
     inkscape:label="Camada 1"
     inkscape:groupmode="layer"
     id="layer1"
     sodipodi:insensitive="true">
    <path
       id="rect2"
       style="fill:#008080;stroke-width:8.2965"
       d="M 81.374138,99.797443 H 174.9019 c 15.32131,0 27.65579,12.334487 27.65579,27.655797 v 68.03984 c 0,15.32132 -12.33448,27.65579 -27.65579,27.65579 C 145.23672,218.09071 57.716762,245.3497 53.71835,195.49308 v -68.03984 c 0,-15.32131 12.334482,-27.655797 27.655788,-27.655797 z m 3.310778,39.699447 H 427.31509 c 17.15548,0 30.96656,13.81109 30.96656,30.96657 v 210.77252 c 0,17.15548 -13.81108,30.96658 -30.96656,30.96658 H 84.684916 c -17.155479,0 -30.966566,-13.8111 -30.966566,-30.96658 V 170.46346 c 0,-17.15548 13.811087,-30.96657 30.966566,-30.96657 z"
       sodipodi:nodetypes="sssssssssssssssss" />
  </g>
  <g
     inkscape:groupmode="layer"
     id="layer2"
     inkscape:label="Camada 2"
     sodipodi:insensitive="true">
    <path
       id="rect3"
       style="fill:#006464;stroke-width:8.77907"
       d="m 123.32886,178.45484 h 334.95279 c 15.32131,0 30.00242,12.51525 27.65579,27.65578 l -27.65578,178.43614 c -2.34662,15.14054 -12.33448,27.65579 -27.65579,27.65579 H 81.374141 c -15.321309,0 -31.162576,-12.7412 -27.655791,-27.65579 L 95.673063,206.11062 c 3.506785,-14.91458 12.334487,-27.65578 27.655797,-27.65578 z"
       sodipodi:nodetypes="sssssssss" />
  </g>
  <g
     inkscape:groupmode="layer"
     id="layer3"
     inkscape:label="Camada 3">
    <text
       xml:space="preserve"
       style="font-style:italic;font-weight:bold;font-size:154.167px;line-height:0;font-family:'Hack Nerd Font Propo';-inkscape-font-specification:'Hack Nerd Font Propo Bold Italic';fill:#006464;fill-opacity:1;stroke-width:24.0885"
       x="137.1268"
       y="322.34726"
       id="text69"
       transform="scale(0.90770946,1.1016741)"><tspan
         sodipodi:role="line"
         id="tspan69"
         x="137.1268"
         y="322.34726"
         style="font-style:italic;font-variant:normal;font-weight:bold;font-stretch:normal;font-size:154.167px;font-family:Arial;-inkscape-font-specification:'Arial Bold Italic';fill:#ffffff;stroke-width:24.0885">McA</tspan></text>
  </g>
</svg>
